<svg width="13.348" height="11.725" xmlns:xlink="http://www.w3.org/1999/xlink" xmlns="http://www.w3.org/2000/svg"><defs><clipPath id="b"><use xlink:href="#a"/></clipPath><path d="M2.042 12.833c-.292 0-.584-.058-.875-.233-.817-.467-1.109-1.575-.642-2.392l4.958-8.283c.117-.233.35-.467.584-.583a1.787 1.787 0 0 1 1.341-.175c.467.116.817.408 1.109.816l4.9 8.225c.175.292.233.584.233.875 0 .467-.175.934-.525 1.225-.292.35-.7.525-1.167.525H2.042ZM6.475 2.567l-4.9 8.225c-.175.291-.058.641.233.816.059.059.175.059.234.059H11.9a.53.53 0 0 0 .408-.175.53.53 0 0 0 .175-.409c0-.116 0-.175-.058-.291l-4.9-8.225c-.175-.292-.525-.35-.817-.234a.455.455 0 0 0-.233.234Zm1.108 5.016V5.25c0-.35-.233-.583-.583-.583s-.583.233-.583.583v2.333c0 .35.233.584.583.584s.583-.234.583-.584Zm-.175 2.742a.53.53 0 0 0 .175-.408c0-.059 0-.175-.058-.234 0-.058-.058-.116-.117-.175 0 0-.058-.058-.116-.058-.059 0-.059-.058-.117-.058-.058 0-.058 0-.117-.059-.116 0-.233 0-.35.059-.058 0-.116.058-.175.116-.058.059-.116.117-.116.175 0 .059-.059.117-.059.234a.53.53 0 0 0 .175.408.53.53 0 0 0 .409.175c.233 0 .35-.058.466-.175Z" id="a"/></defs><path d="M1.74 11.725c-.292 0-.584-.058-.876-.233C.048 11.025-.244 9.917.223 9.1L5.18.817c.117-.234.35-.467.583-.584A1.787 1.787 0 0 1 7.106.058c.467.117.817.409 1.108.817l4.9 8.225c.175.292.234.583.234.875 0 .467-.175.933-.525 1.225-.292.35-.7.525-1.167.525H1.739ZM6.172 1.458l-4.9 8.225c-.175.292-.059.642.233.817.058.058.175.058.233.058h9.859a.53.53 0 0 0 .408-.175.53.53 0 0 0 .175-.408c0-.117 0-.175-.058-.292l-4.9-8.225c-.175-.291-.525-.35-.817-.233a.455.455 0 0 0-.233.233ZM7.28 6.475V4.142c0-.35-.233-.584-.583-.584s-.584.234-.584.584v2.333c0 .35.234.583.584.583s.583-.233.583-.583Zm-.175 2.742a.53.53 0 0 0 .175-.409c0-.058 0-.175-.058-.233 0-.058-.059-.117-.117-.175 0 0-.058-.058-.117-.058-.058 0-.058-.059-.116-.059-.059 0-.059 0-.117-.058-.117 0-.233 0-.35.058-.058 0-.117.059-.175.117-.058.058-.117.117-.117.175 0 .058-.058.117-.058.233a.53.53 0 0 0 .175.409.53.53 0 0 0 .408.175c.234 0 .35-.059.467-.175Z"/><g clip-path="url(#b)" transform="translate(-.302 -1.108)"><path d="M0 0h14v14H0V0Z" fill="#B2232F" fill-rule="evenodd"/></g></svg>