<?xml version="1.0" encoding="utf-8"?>
<svg width="9.333313px" height="5.333374px" viewBox="0 0 9.333313 5.333374" version="1.1" xmlns:xlink="http://www.w3.org/1999/xlink" xmlns="http://www.w3.org/2000/svg">
  <defs>
    <path d="M12.4667 6.46667L8.46667 10.4667C8.33333 10.6 8.2 10.6667 8 10.6667C7.8 10.6667 7.66667 10.6 7.53333 10.4667L3.53333 6.46667C3.26667 6.2 3.26667 5.8 3.53333 5.53333C3.8 5.26667 4.2 5.26667 4.46667 5.53333L8 9.06667L11.5333 5.53333C11.8 5.26667 12.2 5.26667 12.4667 5.53333C12.7333 5.8 12.7333 6.2 12.4667 6.46667Z" id="path_1" />
    <clipPath id="mask_1">
      <use xlink:href="#path_1" />
    </clipPath>
  </defs>
  <g id="icon--user-fill-copy" transform="translate(-3.333313 -5.333374)">
    <path d="M12.4667 6.46667L8.46667 10.4667C8.33333 10.6 8.2 10.6667 8 10.6667C7.8 10.6667 7.66667 10.6 7.53333 10.4667L3.53333 6.46667C3.26667 6.2 3.26667 5.8 3.53333 5.53333C3.8 5.26667 4.2 5.26667 4.46667 5.53333L8 9.06667L11.5333 5.53333C11.8 5.26667 12.2 5.26667 12.4667 5.53333C12.7333 5.8 12.7333 6.2 12.4667 6.46667Z" id="Mask" fill="#000000" fill-rule="evenodd" stroke="none" />
    <g clip-path="url(#mask_1)">
      <g id="Icon-Color">
        <path d="M0 0L16 0L16 16L0 16L0 0Z" id="Shape" fill="#FFFFFF" fill-rule="evenodd" stroke="none" />
      </g>
    </g>
  </g>
</svg>