<svg width="13.5" height="9.75" xmlns:xlink="http://www.w3.org/1999/xlink" xmlns="http://www.w3.org/2000/svg"><defs><clipPath id="b"><use xlink:href="#a"/></clipPath><path d="m15.525 5.775-8.25 8.25a.68.68 0 0 1-.525.225.68.68 0 0 1-.525-.225l-3.75-3.75c-.3-.3-.3-.75 0-1.05.3-.3.75-.3 1.05 0L6.75 12.45l7.725-7.725c.3-.3.75-.3 1.05 0 .3.3.3.75 0 1.05Z" id="a"/></defs><path d="m13.275 1.275-8.25 8.25a.68.68 0 0 1-.525.225.68.68 0 0 1-.525-.225l-3.75-3.75c-.3-.3-.3-.75 0-1.05.3-.3.75-.3 1.05 0L4.5 7.95 12.225.225c.3-.3.75-.3 1.05 0 .3.3.3.75 0 1.05Z" fill-rule="evenodd"/><g clip-path="url(#b)" transform="translate(-2.25 -4.5)"><path d="M0 0h18v18H0V0Z" fill="#FFF" fill-rule="evenodd"/></g></svg>