<svg width="13.417" height="12.833" xmlns:xlink="http://www.w3.org/1999/xlink" xmlns="http://www.w3.org/2000/svg"><defs><clipPath id="b"><use xlink:href="#a"/></clipPath><path d="M13.417 6.475V7A6.398 6.398 0 0 1 7 13.417 6.398 6.398 0 0 1 .583 7 6.398 6.398 0 0 1 7 .583c.875 0 1.808.175 2.625.584.292.116.408.466.292.758-.117.292-.467.408-.759.292-.7-.292-1.4-.467-2.158-.467A5.228 5.228 0 0 0 1.75 7 5.228 5.228 0 0 0 7 12.25 5.228 5.228 0 0 0 12.25 7v-.525c0-.35.233-.583.583-.583s.584.233.584.583Zm.408-5.133a.564.564 0 0 0-.817 0L7 7.35 5.658 6.008a.564.564 0 0 0-.816 0 .564.564 0 0 0 0 .817l1.75 1.75A.63.63 0 0 0 7 8.75a.63.63 0 0 0 .408-.175l6.417-6.417a.564.564 0 0 0 0-.816Z" id="a"/></defs><path d="M12.833 5.892v.525a6.398 6.398 0 0 1-6.416 6.416A6.398 6.398 0 0 1 0 6.417 6.398 6.398 0 0 1 6.417 0c.875 0 1.808.175 2.625.583.291.117.408.467.291.759-.116.291-.466.408-.758.291-.7-.291-1.4-.466-2.158-.466a5.228 5.228 0 0 0-5.25 5.25 5.228 5.228 0 0 0 5.25 5.25 5.228 5.228 0 0 0 5.25-5.25v-.525c0-.35.233-.584.583-.584s.583.234.583.584Zm.409-5.134a.564.564 0 0 0-.817 0L6.417 6.767 5.075 5.425a.564.564 0 0 0-.817 0 .564.564 0 0 0 0 .817l1.75 1.75a.63.63 0 0 0 .409.175.63.63 0 0 0 .408-.175l6.417-6.417a.564.564 0 0 0 0-.817Z"/><g clip-path="url(#b)" transform="translate(-.583 -.583)"><path d="M0 0h14v14H0V0Z" fill="#237F35" fill-rule="evenodd"/></g></svg>