<?xml version="1.0" encoding="utf-8"?>
<svg width="82.12598px" height="50.125977px" viewBox="0 0 82.12598 50.125977" version="1.1" xmlns:xlink="http://www.w3.org/1999/xlink" xmlns="http://www.w3.org/2000/svg">
  <defs>
    <path d="M0 50L81.987 50L81.987 0.197368L0 0.197368L0 50Z" id="path_1" />
    <clipPath id="mask_1">
      <use xlink:href="#path_1" />
    </clipPath>
  </defs>
  <g id="intraloxLogobox-Copy" transform="translate(0.06298828 0.06298828)">
    <path d="M0 50L81.987 50L81.987 0L0 0L0 50Z" id="Background" fill="#ED1C24" fill-rule="evenodd" stroke="none" />
    <g id="LogoType" transform="matrix(1 0 0 1 0 1.4210855E-14)">
      <path d="M31.3162 18.7171L32.7284 18.7171L32.7284 20.6776L31.3162 20.6776L31.3162 26.9605C31.3162 27.1842 31.4333 27.3289 31.6611 27.3289L32.6503 27.3289L32.6438 29.125L29.9886 29.1184C29.3638 29.1118 29.0384 28.8224 28.7911 28.5658C28.4657 28.2171 28.277 27.5 28.2835 26.8421L28.2835 20.6842L26.8778 20.6908L26.8778 18.7237L28.29 18.7237L28.29 15.9671L31.3162 15.9671C31.3162 15.9671 31.3162 18.7171 31.3162 18.7171" id="Fill-2" fill="#FFFFFF" fill-rule="evenodd" stroke="none" />
      <path d="M31.3162 18.7171L32.7284 18.7171L32.7284 20.6776L31.3162 20.6776L31.3162 26.9605C31.3162 27.1842 31.4333 27.3289 31.6611 27.3289L32.6503 27.3289L32.6438 29.125L29.9886 29.1184C29.3638 29.1118 29.0384 28.8224 28.7911 28.5658C28.4657 28.2171 28.277 27.5 28.2835 26.8421L28.2835 20.6842L26.8778 20.6908L26.8778 18.7237L28.29 18.7237L28.29 15.9671L31.3162 15.9671C31.3162 15.9671 31.3162 18.7171 31.3162 18.7171Z" id="Stroke-4" fill="none" fill-rule="evenodd" stroke="#FFFFFF" stroke-width="0.126" stroke-linecap="square" />
      <path d="M35.9433 18.8487C35.9498 19.0197 36.0475 19.625 36.0475 19.625C36.7959 18.8355 38.2081 18.7961 38.4163 18.8487C38.4163 19.0592 38.4229 21.25 38.4229 21.25C38.2471 21.1974 38.143 21.1645 37.8437 21.1184C37.284 21.0724 36.7438 21.1513 36.4444 21.5987C36.2622 21.8553 36.2687 22.1974 36.2622 22.5329L36.2557 29.0855L33.3141 29.0855L33.3206 22.2434C33.3467 21.0855 33.3141 19.7566 33.1905 18.8421L35.9433 18.8421L35.9433 18.8487Z" id="Fill-6" fill="#FFFFFF" fill-rule="evenodd" stroke="none" />
      <path d="M35.9433 18.8487C35.9498 19.0197 36.0475 19.625 36.0475 19.625C36.7959 18.8355 38.2081 18.7961 38.4163 18.8487C38.4163 19.0592 38.4229 21.25 38.4229 21.25C38.2471 21.1974 38.143 21.1645 37.8437 21.1184C37.284 21.0724 36.7438 21.1513 36.4444 21.5987C36.2622 21.8553 36.2687 22.1974 36.2622 22.5329L36.2557 29.0855L33.3141 29.0855L33.3206 22.2434C33.3467 21.0855 33.3141 19.7566 33.1905 18.8421L35.9433 18.8421L35.9433 18.8487Z" id="Stroke-8" fill="none" fill-rule="evenodd" stroke="#FFFFFF" stroke-width="0.126" stroke-linecap="square" />
      <path d="M69.0883 19.9474C69.264 19.9474 69.4202 19.9342 69.4202 19.7237C69.4202 19.5526 69.264 19.5197 69.1208 19.5197L68.841 19.5197L68.841 19.9474L69.0883 19.9474ZM68.841 20.7237L68.6327 20.7237L68.6327 19.3421L69.1533 19.3421C69.4787 19.3421 69.6349 19.4605 69.6349 19.7368C69.6349 19.9803 69.4787 20.0921 69.2835 20.1184L69.674 20.7237L69.4397 20.7237L69.0817 20.125L68.841 20.125C68.841 20.125 68.841 20.7237 68.841 20.7237L68.841 20.7237ZM69.0883 21.0329C69.6219 21.0329 70.0449 20.6118 70.0449 20.0329C70.0449 19.4671 69.6219 19.0395 69.0883 19.0395C68.5481 19.0395 68.1251 19.4671 68.1251 20.0329C68.1251 20.6118 68.5481 21.0329 69.0883 21.0329L69.0883 21.0329ZM67.8843 20.0329C67.8843 19.3487 68.4375 18.8421 69.0883 18.8421C69.7325 18.8421 70.2857 19.3487 70.2857 20.0329C70.2857 20.7237 69.7325 21.2368 69.0883 21.2368C68.4375 21.2303 67.8843 20.7237 67.8843 20.0329L67.8843 20.0329Z" id="Fill-10" fill="#FFFFFF" fill-rule="evenodd" stroke="none" />
      <path d="M69.0883 19.9474C69.264 19.9474 69.4202 19.9342 69.4202 19.7237C69.4202 19.5526 69.264 19.5197 69.1208 19.5197L68.841 19.5197L68.841 19.9474L69.0883 19.9474ZM68.841 20.7237L68.6327 20.7237L68.6327 19.3421L69.1533 19.3421C69.4787 19.3421 69.6349 19.4605 69.6349 19.7368C69.6349 19.9803 69.4787 20.0921 69.2835 20.1184L69.674 20.7237L69.4397 20.7237L69.0817 20.125L68.841 20.125C68.841 20.125 68.841 20.7237 68.841 20.7237ZM69.0883 21.0329C69.6219 21.0329 70.0449 20.6118 70.0449 20.0329C70.0449 19.4671 69.6219 19.0395 69.0883 19.0395C68.5481 19.0395 68.1251 19.4671 68.1251 20.0329C68.1251 20.6118 68.5481 21.0329 69.0883 21.0329ZM67.8843 20.0329C67.8843 19.3487 68.4375 18.8421 69.0883 18.8421C69.7325 18.8421 70.2857 19.3487 70.2857 20.0329C70.2857 20.7237 69.7325 21.2368 69.0883 21.2368C68.4375 21.2303 67.8843 20.7237 67.8843 20.0329Z" id="Stroke-12" fill="none" fill-rule="evenodd" stroke="#FFFFFF" stroke-width="0.126" />
      <path d="M0 50L81.987 50L81.987 0.197368L0 0.197368L0 50Z" id="Clip-15" fill="none" fill-rule="evenodd" stroke="none" />
      <g clip-path="url(#mask_1)">
        <path d="M14.5843 18.0395L17.8578 18.0395L17.8578 14.8355L14.5843 14.8355L14.5843 18.0395Z" id="Fill-14" fill="#FFFFFF" fill-rule="evenodd" stroke="none" />
        <path d="M14.5843 18.0395L17.8578 18.0395L17.8578 14.8355L14.5843 14.8355L14.5843 18.0395Z" id="Stroke-16" fill="none" fill-rule="evenodd" stroke="#FFFFFF" stroke-width="0.126" stroke-linecap="square" />
        <path d="M14.5843 29.0855L17.8578 29.0855L17.8578 18.7171L14.5843 18.7171L14.5843 29.0855Z" id="Fill-17" fill="#FFFFFF" fill-rule="evenodd" stroke="none" />
        <path d="M14.5843 29.0855L17.8578 29.0855L17.8578 18.7171L14.5843 18.7171L14.5843 29.0855Z" id="Stroke-18" fill="none" fill-rule="evenodd" stroke="#FFFFFF" stroke-width="0.126" stroke-linecap="square" />
        <path d="M26.4548 19.6053C26.5914 20.0197 26.5264 26.8092 26.5719 27.5197C26.624 28.2303 26.6305 28.5855 26.7151 29.0855L23.4221 29.0855C23.4221 29.0855 23.4546 21.5 23.4351 20.5C23.4156 20.1711 23.1617 20.1118 22.7973 20.1316C22.2702 20.1316 22.1205 20.3092 22.1335 20.5066C22.14 20.6118 22.14 29.125 22.14 29.125L19.1138 29.1316L19.1268 21.0921C19.1659 20.2829 19.1008 19.5066 18.9837 18.7434L21.9252 18.7237C22.0033 18.8553 21.9903 18.9605 22.0424 19.1645C22.3743 18.875 22.7257 18.6447 23.2138 18.5658C24.0989 18.4211 25.0881 18.4868 25.843 18.8816C26.1294 19.0461 26.3441 19.2697 26.4548 19.6053" id="Fill-19" fill="#FFFFFF" fill-rule="evenodd" stroke="none" />
        <path d="M26.4548 19.6053C26.5914 20.0197 26.5264 26.8092 26.5719 27.5197C26.624 28.2303 26.6305 28.5855 26.7151 29.0855L23.4221 29.0855C23.4221 29.0855 23.4546 21.5 23.4351 20.5C23.4156 20.1711 23.1617 20.1118 22.7973 20.1316C22.2702 20.1316 22.1205 20.3092 22.1335 20.5066C22.14 20.6118 22.14 29.125 22.14 29.125L19.1138 29.1316L19.1268 21.0921C19.1659 20.2829 19.1008 19.5066 18.9837 18.7434L21.9252 18.7237C22.0033 18.8553 21.9903 18.9605 22.0424 19.1645C22.3743 18.875 22.7257 18.6447 23.2138 18.5658C24.0989 18.4211 25.0881 18.4868 25.843 18.8816C26.1294 19.0461 26.3441 19.2697 26.4548 19.6053Z" id="Stroke-20" fill="none" fill-rule="evenodd" stroke="#FFFFFF" stroke-width="0.126" stroke-linecap="square" />
        <path d="M42.7181 27.6842C42.1454 27.7566 41.9241 27.9342 41.8395 27.3421C41.807 26.4737 41.7224 25.2368 41.8135 24.7171C41.833 24.5987 41.8265 24.5066 42.0217 24.3947C42.2105 24.2829 42.4187 24.2763 42.8873 24.2763L43.037 24.2763L43.037 27.1974C43.0175 27.4079 43.0305 27.6184 42.7181 27.6842M46.1348 27.5855L46.1087 25.1908C46.1087 25.1908 46.1413 21.1316 46.0892 20.7237C46.0241 20.1974 45.6532 19.5658 45.1065 19.2697C44.241 18.8421 43.2257 18.6974 42.2105 18.7105C40.961 18.8026 39.5227 18.9605 38.9695 20.25C38.7613 20.8816 38.8329 21.6513 38.8394 22.3553L41.8721 22.3289C41.8721 22.3289 41.846 21.0395 41.9111 20.375C41.9371 20.25 42.0413 20.1382 42.1584 20.0855C42.3862 20.0066 42.6856 20.0132 42.8808 20.1513C42.9719 20.2237 43.0175 20.3289 43.037 20.4342L43.037 22.4408C43.024 22.9408 42.5684 23.0526 42.3471 23.0724C41.436 23.1842 40.4078 22.9737 39.6008 23.3487C39.0802 23.625 38.7613 24.1908 38.7613 24.7829L38.7548 27.4934C38.8133 27.9671 38.8589 28.4605 39.2298 28.7961C39.783 29.3684 40.5054 29.2697 41.2343 29.2763C41.7744 29.2697 42.6595 29.1645 43.0565 28.625C43.1086 28.7961 43.1021 28.9803 43.1541 29.1447L46.3235 29.1513C46.2519 28.6513 46.1413 28.1184 46.1348 27.5855" id="Fill-21" fill="#FFFFFF" fill-rule="evenodd" stroke="none" />
        <path d="M42.7181 27.6842C42.1454 27.7566 41.9241 27.9342 41.8395 27.3421C41.807 26.4737 41.7224 25.2368 41.8135 24.7171C41.833 24.5987 41.8265 24.5066 42.0217 24.3947C42.2105 24.2829 42.4187 24.2763 42.8873 24.2763L43.037 24.2763L43.037 27.1974C43.0175 27.4079 43.0305 27.6184 42.7181 27.6842ZM46.1348 27.5855L46.1087 25.1908C46.1087 25.1908 46.1413 21.1316 46.0892 20.7237C46.0241 20.1974 45.6532 19.5658 45.1065 19.2697C44.241 18.8421 43.2257 18.6974 42.2105 18.7105C40.961 18.8026 39.5227 18.9605 38.9695 20.25C38.7613 20.8816 38.8329 21.6513 38.8394 22.3553L41.8721 22.3289C41.8721 22.3289 41.846 21.0395 41.9111 20.375C41.9371 20.25 42.0413 20.1382 42.1584 20.0855C42.3862 20.0066 42.6856 20.0132 42.8808 20.1513C42.9719 20.2237 43.0175 20.3289 43.037 20.4342L43.037 22.4408C43.024 22.9408 42.5684 23.0526 42.3471 23.0724C41.436 23.1842 40.4078 22.9737 39.6008 23.3487C39.0802 23.625 38.7613 24.1908 38.7613 24.7829L38.7548 27.4934C38.8133 27.9671 38.8589 28.4605 39.2298 28.7961C39.783 29.3684 40.5054 29.2697 41.2343 29.2763C41.7744 29.2697 42.6595 29.1645 43.0565 28.625C43.1086 28.7961 43.1021 28.9803 43.1541 29.1447L46.3235 29.1513C46.2519 28.6513 46.1413 28.1184 46.1348 27.5855Z" id="Stroke-22" fill="none" fill-rule="evenodd" stroke="#FFFFFF" stroke-width="0.126" stroke-linecap="square" />
        <path d="M47.1175 29.0987L50.3844 29.0987L50.3844 14.7763L47.1175 14.7763L47.1175 29.0987Z" id="Fill-23" fill="#FFFFFF" fill-rule="evenodd" stroke="none" />
        <path d="M47.1175 29.0987L50.3844 29.0987L50.3844 14.7763L47.1175 14.7763L47.1175 29.0987Z" id="Stroke-24" fill="none" fill-rule="evenodd" stroke="#FFFFFF" stroke-width="0.126" stroke-linecap="square" />
        <path d="M63.1465 22.2895L64.1162 18.8158L67.5264 18.8224L65.6521 23.5855L67.6565 29.0855L64.344 29.0724L63.1465 25.2105L62.0792 29.0724L58.7081 29.0855L60.7451 23.9342L58.7602 18.7961L62.0532 18.7895L63.1465 22.2895Z" id="Fill-25" fill="#FFFFFF" fill-rule="evenodd" stroke="none" />
        <path d="M63.1465 22.2895L64.1162 18.8158L67.5264 18.8224L65.6521 23.5855L67.6565 29.0855L64.344 29.0724L63.1465 25.2105L62.0792 29.0724L58.7081 29.0855L60.7451 23.9342L58.7602 18.7961L62.0532 18.7895L63.1465 22.2895Z" id="Stroke-26" fill="none" fill-rule="evenodd" stroke="#FFFFFF" stroke-width="0.126" stroke-linecap="square" />
        <path d="M64.3505 33.3816C63.9079 33.3816 63.5565 33.0197 63.5565 32.5789C63.5565 32.1316 63.9144 31.7763 64.3505 31.7763C64.7865 31.7763 65.1444 32.1382 65.1444 32.5789C65.1444 33.0197 64.7865 33.3816 64.3505 33.3816M48.6273 36C48.1848 36 47.8268 35.6382 47.8268 35.1974C47.8268 34.75 48.1848 34.3947 48.6273 34.3947C49.0698 34.3947 49.4213 34.7566 49.4213 35.1974C49.4213 35.6382 49.0633 36 48.6273 36M33.0213 33.3947C32.5787 33.3947 32.2273 33.0329 32.2273 32.5921C32.2273 32.1447 32.5852 31.7895 33.0213 31.7895C33.4638 31.7895 33.8217 32.1513 33.8217 32.5921C33.8152 33.0329 33.4573 33.3947 33.0213 33.3947M17.3697 35.8618C16.9271 35.8618 16.5757 35.5 16.5757 35.0592C16.5757 34.6118 16.9337 34.2566 17.3697 34.2566C17.8122 34.2566 18.1637 34.6184 18.1637 35.0592C18.1702 35.5 17.8122 35.8618 17.3697 35.8618M64.3505 29.8882C63.1595 29.8882 62.1508 30.6776 61.8124 31.7697L59.0335 32.2237L58.8773 31.2763C58.8448 31.0526 58.6365 30.9079 58.4152 30.9408L58.3567 30.9474C58.1419 30.9868 57.9922 31.1974 58.0248 31.4145L58.181 32.3553L54.2371 33L54.081 32.0592C54.0419 31.8421 53.8402 31.6908 53.6189 31.7303L53.5603 31.7368C53.3456 31.7763 53.1959 31.9868 53.2284 32.2039L53.3781 33.1382L50.7229 33.5724C50.2348 32.9276 49.4733 32.5132 48.6078 32.5132C47.7878 32.5132 47.0524 32.8882 46.5643 33.4803L43.7659 33.0066L43.9221 32.0592C43.9611 31.8355 43.8114 31.6316 43.5902 31.5921L43.5316 31.5855C43.3103 31.5526 43.1086 31.6974 43.0695 31.9211L42.9133 32.8618L38.9695 32.1908L39.1257 31.25C39.1583 31.0329 39.0151 30.8224 38.7938 30.7829L38.7417 30.7763C38.5205 30.7368 38.3187 30.8882 38.2797 31.1118L38.13 32.0461L35.4683 31.5921C35.0778 30.6053 34.1211 29.9079 33.0017 29.9079C31.8629 29.9079 30.8867 30.6382 30.5092 31.6579L27.8084 32.0987L27.6522 31.1513C27.6132 30.9276 27.4114 30.7829 27.1902 30.8158L27.1381 30.8289C26.9168 30.8618 26.7737 31.0724 26.8062 31.2961L26.9624 32.2368L23.0186 32.8816L22.8689 31.9408C22.8298 31.7237 22.6281 31.5724 22.4068 31.6118L22.3483 31.6184C22.1335 31.6579 21.9838 31.8618 22.0229 32.0855L22.1725 33.0197L19.4913 33.4539C19.0097 32.7961 18.2352 32.3618 17.3567 32.3618C15.8859 32.3618 14.7014 33.5658 14.7014 35.0526C14.7014 36.5395 15.8924 37.7368 17.3567 37.7368C18.5346 37.7368 19.5303 36.9605 19.8817 35.8882L22.5695 35.4474L22.7257 36.3947C22.7648 36.6184 22.9665 36.7632 23.1878 36.7303L23.2464 36.7171C23.4676 36.6842 23.6108 36.4737 23.5783 36.25L23.4286 35.3158L27.3724 34.6711L27.5286 35.6118C27.5676 35.8355 27.7694 35.9803 27.9906 35.9474L28.0427 35.9408C28.264 35.9013 28.4071 35.6908 28.3746 35.4737L28.2249 34.5395L30.8281 34.1184C31.3097 34.8224 32.1102 35.2895 33.0213 35.2895C33.9584 35.2895 34.7784 34.8026 35.2535 34.0658L37.759 34.4934L37.6029 35.4408C37.5703 35.6645 37.7135 35.8684 37.9348 35.9079L37.9933 35.9145C38.2081 35.9474 38.4164 35.8026 38.4554 35.5789L38.6116 34.6316L42.5554 35.3026L42.3992 36.2434C42.3667 36.4671 42.5098 36.6711 42.7311 36.7105L42.7832 36.7171C43.0044 36.75 43.2062 36.5987 43.2452 36.3816L43.3949 35.4474L46.0697 35.9013C46.3756 37.0461 47.4038 37.8947 48.6338 37.8947C49.8248 37.8947 50.827 37.1053 51.1654 36.0132L53.7946 35.5855L53.9508 36.5395C53.9898 36.7566 54.1981 36.9079 54.4129 36.8684L54.4649 36.8618C54.6862 36.8224 54.8294 36.6118 54.7968 36.3947L54.6406 35.4474L58.591 34.8026L58.7406 35.7434C58.7797 35.9605 58.9879 36.1118 59.2027 36.0724L59.2548 36.0658C59.476 36.0263 59.6192 35.8158 59.5802 35.5987L59.4305 34.6645L62.2354 34.2039C62.717 34.8487 63.4849 35.2632 64.3505 35.2632C65.8213 35.2632 67.0057 34.0592 67.0057 32.5789C67.0057 31.0921 65.8148 29.8882 64.3505 29.8882" id="Fill-27" fill="#FFFFFF" fill-rule="evenodd" stroke="none" />
        <path d="M64.3505 33.3816C63.9079 33.3816 63.5565 33.0197 63.5565 32.5789C63.5565 32.1316 63.9144 31.7763 64.3505 31.7763C64.7865 31.7763 65.1444 32.1382 65.1444 32.5789C65.1444 33.0197 64.7865 33.3816 64.3505 33.3816ZM48.6273 36C48.1848 36 47.8268 35.6382 47.8268 35.1974C47.8268 34.75 48.1848 34.3947 48.6273 34.3947C49.0698 34.3947 49.4213 34.7566 49.4213 35.1974C49.4213 35.6382 49.0633 36 48.6273 36ZM33.0213 33.3947C32.5787 33.3947 32.2273 33.0329 32.2273 32.5921C32.2273 32.1447 32.5852 31.7895 33.0213 31.7895C33.4638 31.7895 33.8217 32.1513 33.8217 32.5921C33.8152 33.0329 33.4573 33.3947 33.0213 33.3947ZM17.3697 35.8618C16.9271 35.8618 16.5757 35.5 16.5757 35.0592C16.5757 34.6118 16.9337 34.2566 17.3697 34.2566C17.8122 34.2566 18.1637 34.6184 18.1637 35.0592C18.1702 35.5 17.8122 35.8618 17.3697 35.8618ZM64.3505 29.8882C63.1595 29.8882 62.1508 30.6776 61.8124 31.7697L59.0335 32.2237L58.8773 31.2763C58.8448 31.0526 58.6365 30.9079 58.4152 30.9408L58.3567 30.9474C58.1419 30.9868 57.9922 31.1974 58.0248 31.4145L58.181 32.3553L54.2371 33L54.081 32.0592C54.0419 31.8421 53.8402 31.6908 53.6189 31.7303L53.5603 31.7368C53.3456 31.7763 53.1959 31.9868 53.2284 32.2039L53.3781 33.1382L50.7229 33.5724C50.2348 32.9276 49.4733 32.5132 48.6078 32.5132C47.7878 32.5132 47.0524 32.8882 46.5643 33.4803L43.7659 33.0066L43.9221 32.0592C43.9611 31.8355 43.8114 31.6316 43.5902 31.5921L43.5316 31.5855C43.3103 31.5526 43.1086 31.6974 43.0695 31.9211L42.9133 32.8618L38.9695 32.1908L39.1257 31.25C39.1583 31.0329 39.0151 30.8224 38.7938 30.7829L38.7417 30.7763C38.5205 30.7368 38.3187 30.8882 38.2797 31.1118L38.13 32.0461L35.4683 31.5921C35.0778 30.6053 34.1211 29.9079 33.0017 29.9079C31.8629 29.9079 30.8867 30.6382 30.5092 31.6579L27.8084 32.0987L27.6522 31.1513C27.6132 30.9276 27.4114 30.7829 27.1902 30.8158L27.1381 30.8289C26.9168 30.8618 26.7737 31.0724 26.8062 31.2961L26.9624 32.2368L23.0186 32.8816L22.8689 31.9408C22.8298 31.7237 22.6281 31.5724 22.4068 31.6118L22.3483 31.6184C22.1335 31.6579 21.9838 31.8618 22.0229 32.0855L22.1725 33.0197L19.4913 33.4539C19.0097 32.7961 18.2352 32.3618 17.3567 32.3618C15.8859 32.3618 14.7014 33.5658 14.7014 35.0526C14.7014 36.5395 15.8924 37.7368 17.3567 37.7368C18.5346 37.7368 19.5303 36.9605 19.8817 35.8882L22.5695 35.4474L22.7257 36.3947C22.7648 36.6184 22.9665 36.7632 23.1878 36.7303L23.2464 36.7171C23.4676 36.6842 23.6108 36.4737 23.5783 36.25L23.4286 35.3158L27.3724 34.6711L27.5286 35.6118C27.5676 35.8355 27.7694 35.9803 27.9906 35.9474L28.0427 35.9408C28.264 35.9013 28.4071 35.6908 28.3746 35.4737L28.2249 34.5395L30.8281 34.1184C31.3097 34.8224 32.1102 35.2895 33.0213 35.2895C33.9584 35.2895 34.7784 34.8026 35.2535 34.0658L37.759 34.4934L37.6029 35.4408C37.5703 35.6645 37.7135 35.8684 37.9348 35.9079L37.9933 35.9145C38.2081 35.9474 38.4164 35.8026 38.4554 35.5789L38.6116 34.6316L42.5554 35.3026L42.3992 36.2434C42.3667 36.4671 42.5098 36.6711 42.7311 36.7105L42.7832 36.7171C43.0044 36.75 43.2062 36.5987 43.2452 36.3816L43.3949 35.4474L46.0697 35.9013C46.3756 37.0461 47.4038 37.8947 48.6338 37.8947C49.8248 37.8947 50.827 37.1053 51.1654 36.0132L53.7946 35.5855L53.9508 36.5395C53.9898 36.7566 54.1981 36.9079 54.4129 36.8684L54.4649 36.8618C54.6862 36.8224 54.8294 36.6118 54.7968 36.3947L54.6406 35.4474L58.591 34.8026L58.7406 35.7434C58.7797 35.9605 58.9879 36.1118 59.2027 36.0724L59.2548 36.0658C59.476 36.0263 59.6192 35.8158 59.5802 35.5987L59.4305 34.6645L62.2354 34.2039C62.717 34.8487 63.4849 35.2632 64.3505 35.2632C65.8213 35.2632 67.0057 34.0592 67.0057 32.5789C67.0057 31.0921 65.8148 29.8882 64.3505 29.8882Z" id="Stroke-28" fill="none" fill-rule="evenodd" stroke="#FFFFFF" stroke-width="0.126" stroke-linecap="square" />
        <path d="M55.6949 20.3618L55.6949 20.4408L55.6949 27.4408L55.6949 27.5197C55.7014 27.6711 55.6298 27.7632 55.5452 27.8224C55.2784 27.9474 54.914 27.9474 54.6602 27.7961C54.5756 27.7171 54.5235 27.625 54.5235 27.5132L54.5235 27.4408L54.517 27.4408L54.517 23.9408L54.517 20.4408L54.5235 20.4342L54.5235 20.3684C54.53 20.2566 54.5756 20.1645 54.6602 20.0855C54.914 19.9342 55.2784 19.9342 55.5452 20.0526C55.6298 20.1184 55.7014 20.2105 55.6949 20.3618L55.6949 20.3618ZM58.6756 20.8092C58.6951 19.875 58.2851 19.4145 57.8165 19.1842C57.0811 18.8289 56.2611 18.6776 55.4021 18.6316C54.2241 18.5855 53.0787 18.6974 52.1481 19.2961C51.6014 19.6645 51.3802 20.2566 51.4062 20.9013L51.3997 27.3289C51.3997 27.7171 51.5624 28.0921 51.8292 28.4079C52.4279 28.9539 53.1894 29.1118 53.9638 29.2171C55.2264 29.3158 56.5865 29.2895 57.6994 28.8289C58.3111 28.5855 58.6951 27.9868 58.7081 27.3224L58.6756 20.8092Z" id="Fill-29" fill="#FFFFFF" fill-rule="evenodd" stroke="none" />
        <path d="M55.6949 20.3618L55.6949 20.4408L55.6949 27.4408L55.6949 27.5197C55.7014 27.6711 55.6298 27.7632 55.5452 27.8224C55.2784 27.9474 54.914 27.9474 54.6602 27.7961C54.5756 27.7171 54.5235 27.625 54.5235 27.5132L54.5235 27.4408L54.517 27.4408L54.517 23.9408L54.517 20.4408L54.5235 20.4342L54.5235 20.3684C54.53 20.2566 54.5756 20.1645 54.6602 20.0855C54.914 19.9342 55.2784 19.9342 55.5452 20.0526C55.6298 20.1184 55.7014 20.2105 55.6949 20.3618ZM58.6756 20.8092C58.6951 19.875 58.2851 19.4145 57.8165 19.1842C57.0811 18.8289 56.2611 18.6776 55.4021 18.6316C54.2241 18.5855 53.0787 18.6974 52.1481 19.2961C51.6014 19.6645 51.3802 20.2566 51.4062 20.9013L51.3997 27.3289C51.3997 27.7171 51.5624 28.0921 51.8292 28.4079C52.4279 28.9539 53.1894 29.1118 53.9638 29.2171C55.2264 29.3158 56.5865 29.2895 57.6994 28.8289C58.3111 28.5855 58.6951 27.9868 58.7081 27.3224L58.6756 20.8092Z" id="Stroke-30" fill="none" fill-rule="evenodd" stroke="#FFFFFF" stroke-width="0.126" stroke-linecap="square" />
      </g>
    </g>
  </g>
</svg>