<svg width="22" height="22" xmlns:xlink="http://www.w3.org/1999/xlink" xmlns="http://www.w3.org/2000/svg"><defs><clipPath id="b"><use xlink:href="#a"/></clipPath><path d="M20 1H4C2.3 1 1 2.3 1 4v4c0 1.7 1.3 3 3 3h16c1.7 0 3-1.3 3-3V4c0-1.7-1.3-3-3-3Zm1 7c0 .6-.4 1-1 1H4c-.6 0-1-.4-1-1V4c0-.6.4-1 1-1h16c.6 0 1 .4 1 1v4Zm-1 5H4c-1.7 0-3 1.3-3 3v4c0 1.7 1.3 3 3 3h16c1.7 0 3-1.3 3-3v-4c0-1.7-1.3-3-3-3Zm1 7c0 .6-.4 1-1 1H4c-.6 0-1-.4-1-1v-4c0-.6.4-1 1-1h16c.6 0 1 .4 1 1v4ZM6.7 5.3c.2.2.3.4.3.7 0 .3-.1.5-.3.7-.2.2-.4.3-.7.3-.3 0-.5-.1-.7-.3-.1-.1-.2-.2-.2-.3C5 6.3 5 6.1 5 6c0-.1 0-.3.1-.4.1-.1.1-.2.2-.3.1-.1.2-.2.3-.2.3-.1.5-.1.8 0 .1 0 .2.1.3.2Zm0 12c.2.2.3.4.3.7 0 .3-.1.5-.3.7-.2.2-.4.3-.7.3-.3 0-.5-.1-.7-.3-.2-.2-.3-.4-.3-.7 0-.1 0-.3.1-.4.1-.1.1-.2.2-.3.4-.4 1-.4 1.4 0Z" id="a"/></defs><path d="M19 0H3C1.3 0 0 1.3 0 3v4c0 1.7 1.3 3 3 3h16c1.7 0 3-1.3 3-3V3c0-1.7-1.3-3-3-3Zm1 7c0 .6-.4 1-1 1H3c-.6 0-1-.4-1-1V3c0-.6.4-1 1-1h16c.6 0 1 .4 1 1v4Zm-1 5H3c-1.7 0-3 1.3-3 3v4c0 1.7 1.3 3 3 3h16c1.7 0 3-1.3 3-3v-4c0-1.7-1.3-3-3-3Zm1 7c0 .6-.4 1-1 1H3c-.6 0-1-.4-1-1v-4c0-.6.4-1 1-1h16c.6 0 1 .4 1 1v4ZM5.7 4.3c.2.2.3.4.3.7 0 .3-.1.5-.3.7-.2.2-.4.3-.7.3-.3 0-.5-.1-.7-.3-.1-.1-.2-.2-.2-.3C4 5.3 4 5.1 4 5c0-.1 0-.3.1-.4.1-.1.1-.2.2-.3.1-.1.2-.2.3-.2.3-.1.5-.1.8 0 .1 0 .2.1.3.2Zm0 12c.2.2.3.4.3.7 0 .3-.1.5-.3.7-.2.2-.4.3-.7.3-.3 0-.5-.1-.7-.3-.2-.2-.3-.4-.3-.7 0-.1 0-.3.1-.4.1-.1.1-.2.2-.3.4-.4 1-.4 1.4 0Z"/><g clip-path="url(#b)" transform="translate(-1 -1)"><path d="M0 0h24v24H0V0Z" fill="#00287B" fill-rule="evenodd"/></g></svg>