<svg width="24" height="20" xmlns:xlink="http://www.w3.org/1999/xlink" xmlns="http://www.w3.org/2000/svg"><defs><clipPath id="b"><use xlink:href="#a"/></clipPath><path d="M3 10V3c0-.6.4-1 1-1s1 .4 1 1v7c0 .6-.4 1-1 1s-1-.4-1-1Zm9 1c-.6 0-1 .4-1 1v9c0 .6.4 1 1 1s1-.4 1-1v-9c0-.6-.4-1-1-1Zm8 2c.6 0 1-.4 1-1V3c0-.6-.4-1-1-1s-1 .4-1 1v9c0 .6.4 1 1 1ZM7 13H1c-.6 0-1 .4-1 1s.4 1 1 1h2v6c0 .6.4 1 1 1s1-.4 1-1v-6h2c.6 0 1-.4 1-1s-.4-1-1-1Zm8-6h-2V3c0-.6-.4-1-1-1s-1 .4-1 1v4H9c-.6 0-1 .4-1 1s.4 1 1 1h6c.6 0 1-.4 1-1s-.4-1-1-1Zm8 8h-6c-.6 0-1 .4-1 1s.4 1 1 1h2v4c0 .6.4 1 1 1s1-.4 1-1v-4h2c.6 0 1-.4 1-1s-.4-1-1-1Z" id="a"/></defs><path d="M3 8V1c0-.6.4-1 1-1s1 .4 1 1v7c0 .6-.4 1-1 1s-1-.4-1-1Zm9 1c-.6 0-1 .4-1 1v9c0 .6.4 1 1 1s1-.4 1-1v-9c0-.6-.4-1-1-1Zm8 2c.6 0 1-.4 1-1V1c0-.6-.4-1-1-1s-1 .4-1 1v9c0 .6.4 1 1 1ZM7 11H1c-.6 0-1 .4-1 1s.4 1 1 1h2v6c0 .6.4 1 1 1s1-.4 1-1v-6h2c.6 0 1-.4 1-1s-.4-1-1-1Zm8-6h-2V1c0-.6-.4-1-1-1s-1 .4-1 1v4H9c-.6 0-1 .4-1 1s.4 1 1 1h6c.6 0 1-.4 1-1s-.4-1-1-1Zm8 8h-6c-.6 0-1 .4-1 1s.4 1 1 1h2v4c0 .6.4 1 1 1s1-.4 1-1v-4h2c.6 0 1-.4 1-1s-.4-1-1-1Z"/><g clip-path="url(#b)" transform="translate(0 -2)"><path d="M0 0h24v24H0V0Z" fill="#00287B" fill-rule="evenodd"/></g></svg>