<svg width="18" height="15" xmlns:xlink="http://www.w3.org/1999/xlink" xmlns="http://www.w3.org/2000/svg"><defs><clipPath id="b"><use xlink:href="#a"/></clipPath><path d="M.373 8.161C.3 8.086.224 8.086.15 8.011c0 0 0-.075-.074-.075C.075 7.86 0 7.86 0 7.786V2.978c0-.451.299-.752.747-.752s.747.3.747.752v2.78l2.24-2.104c.747-.752 1.718-1.353 2.764-1.728 1.867-.676 3.884-.526 5.676.3 1.793.902 3.137 2.404 3.81 4.282.149.376-.075.827-.449.977-.373.15-.821-.075-.97-.45-.524-1.503-1.644-2.705-3.063-3.456a5.986 5.986 0 0 0-4.556-.226c-.822.3-1.643.751-2.24 1.428L2.538 6.734h2.615c.448 0 .746.3.746.751 0 .45-.298.751-.746.751H.672c-.074 0-.224 0-.299-.075Zm17.478 2.179v-.15c0-.076-.075-.076-.075-.15 0 0 0-.076-.075-.076l-.15-.15-.074-.075H12.698c-.449 0-.748.3-.748.751 0 .45.299.751.747.751h2.614L13.22 13.27c-2.315 2.329-6.125 2.329-8.44 0a6.41 6.41 0 0 1-1.419-2.254c-.15-.376-.598-.601-.971-.45-.373.15-.597.6-.448.976.373 1.052.97 2.028 1.792 2.78C5.228 15.823 7.095 16.5 9.037 16.5c1.942 0 3.81-.751 5.229-2.179l2.24-2.103v2.78c0 .45.299.75.747.75s.747-.3.747-.75V10.49c-.15-.075-.15-.075-.15-.15Z" id="a"/></defs><path d="M.373 6.661C.3 6.586.224 6.586.15 6.511c0 0 0-.075-.074-.075C.075 6.36 0 6.36 0 6.286V1.478C0 1.027.299.726.747.726s.747.3.747.752v2.78l2.24-2.104C4.481 1.402 5.452.8 6.498.426c1.867-.676 3.884-.526 5.676.3 1.793.902 3.137 2.404 3.81 4.282.149.376-.075.827-.449.977-.373.15-.821-.075-.97-.45-.524-1.503-1.644-2.705-3.063-3.456a5.986 5.986 0 0 0-4.556-.226c-.822.3-1.643.751-2.24 1.428L2.538 5.234h2.615c.448 0 .746.3.746.751 0 .45-.298.751-.746.751H.672c-.074 0-.224 0-.299-.075ZM17.851 8.84v-.15c0-.076-.075-.076-.075-.15 0 0 0-.076-.075-.076l-.15-.15-.074-.075H12.698c-.449 0-.748.3-.748.751 0 .45.299.751.747.751h2.614L13.22 11.77c-2.315 2.329-6.125 2.329-8.44 0a6.41 6.41 0 0 1-1.419-2.254c-.15-.376-.598-.601-.971-.45-.373.15-.597.6-.448.976.373 1.052.97 2.028 1.792 2.78C5.228 14.323 7.095 15 9.037 15c1.942 0 3.81-.751 5.229-2.179l2.24-2.103v2.78c0 .45.299.75.747.75s.747-.3.747-.75V8.99c-.15-.075-.15-.075-.15-.15Z"/><g clip-path="url(#b)" transform="translate(0 -1.5)"><path d="M0 0h18v18H0V0Z" fill="#00287B" fill-rule="evenodd"/></g></svg>