<svg width="15" height="15" xmlns:xlink="http://www.w3.org/1999/xlink" xmlns="http://www.w3.org/2000/svg"><defs><clipPath id="b"><use xlink:href="#a"/></clipPath><path d="m16.275 5.475-3.75-3.75A.68.68 0 0 0 12 1.5H3.75c-1.275 0-2.25.975-2.25 2.25v10.5c0 1.275.975 2.25 2.25 2.25h10.5c1.275 0 2.25-.975 2.25-2.25V6a.68.68 0 0 0-.225-.525ZM12 15H6v-4.5h6V15Zm3-.75c0 .45-.3.75-.75.75h-.75V9.75c0-.45-.3-.75-.75-.75h-7.5c-.45 0-.75.3-.75.75V15h-.75c-.45 0-.75-.3-.75-.75V3.75c0-.45.3-.75.75-.75h.75v3c0 .45.3.75.75.75h6c.45 0 .75-.3.75-.75s-.3-.75-.75-.75H6V3h5.7L15 6.3v7.95Z" id="a"/></defs><path d="m14.775 3.975-3.75-3.75A.68.68 0 0 0 10.5 0H2.25C.975 0 0 .975 0 2.25v10.5C0 14.025.975 15 2.25 15h10.5c1.275 0 2.25-.975 2.25-2.25V4.5a.68.68 0 0 0-.225-.525ZM10.5 13.5h-6V9h6v4.5Zm3-.75c0 .45-.3.75-.75.75H12V8.25c0-.45-.3-.75-.75-.75h-7.5c-.45 0-.75.3-.75.75v5.25h-.75c-.45 0-.75-.3-.75-.75V2.25c0-.45.3-.75.75-.75H3v3c0 .45.3.75.75.75h6c.45 0 .75-.3.75-.75s-.3-.75-.75-.75H4.5V1.5h5.7l3.3 3.3v7.95Z"/><g clip-path="url(#b)" transform="translate(-1.5 -1.5)"><path d="M0 0h18v18H0V0Z" fill="#0377BA" fill-rule="evenodd"/></g></svg>