<?xml version="1.0" encoding="utf-8"?>
<svg width="18px" height="20px" viewBox="0 0 18 20" version="1.1" xmlns:xlink="http://www.w3.org/1999/xlink" xmlns="http://www.w3.org/2000/svg">
  <defs>
    <path d="M21 19L21 21C21 21.6 20.6 22 20 22C19.4 22 19 21.6 19 21L19 19L5 19L5 21C5 21.6 4.6 22 4 22C3.4 22 3 21.6 3 21L3 19C3 16.2 5.2 14 8 14L16 14C18.8 14 21 16.2 21 19ZM7 7C7 4.2 9.2 2 12 2C14.8 2 17 4.2 17 7C17 9.8 14.8 12 12 12C9.2 12 7 9.8 7 7Z" id="path_1" />
    <clipPath id="mask_1">
      <use xlink:href="#path_1" />
    </clipPath>
  </defs>
  <g id="icon--user-fill" transform="translate(-3 -2)">
    <path d="M21 19L21 21C21 21.6 20.6 22 20 22C19.4 22 19 21.6 19 21L19 19L5 19L5 21C5 21.6 4.6 22 4 22C3.4 22 3 21.6 3 21L3 19C3 16.2 5.2 14 8 14L16 14C18.8 14 21 16.2 21 19ZM7 7C7 4.2 9.2 2 12 2C14.8 2 17 4.2 17 7C17 9.8 14.8 12 12 12C9.2 12 7 9.8 7 7Z" id="Mask" fill="#000000" stroke="none" />
    <g clip-path="url(#mask_1)">
      <g id="Icon-Color">
        <path d="M0 0L24 0L24 24L0 24L0 0Z" id="Shape" fill="#FFFFFF" fill-rule="evenodd" stroke="none" />
      </g>
    </g>
  </g>
</svg>