<svg width="12.833" height="12.833" xmlns:xlink="http://www.w3.org/1999/xlink" xmlns="http://www.w3.org/2000/svg"><defs><clipPath id="b"><use xlink:href="#a"/></clipPath><path d="M7 13.417A6.398 6.398 0 0 1 .583 7 6.398 6.398 0 0 1 7 .583 6.398 6.398 0 0 1 13.417 7 6.398 6.398 0 0 1 7 13.417ZM7 1.75A5.228 5.228 0 0 0 1.75 7 5.228 5.228 0 0 0 7 12.25 5.228 5.228 0 0 0 12.25 7 5.228 5.228 0 0 0 7 1.75ZM7.583 7V4.667c0-.35-.233-.584-.583-.584s-.583.234-.583.584V7c0 .35.233.583.583.583s.583-.233.583-.583Zm-.175 2.742c.059-.059.117-.117.117-.175 0-.059.058-.175.058-.234 0-.058 0-.175-.058-.233-.058-.058-.058-.117-.117-.175 0 0-.058-.058-.116-.058-.059 0-.059-.059-.117-.059-.233-.116-.467-.058-.642.117-.058.058-.116.117-.116.175 0 .058-.059.117-.059.233a.53.53 0 0 0 .175.409.53.53 0 0 0 .409.175c.233 0 .35-.059.466-.175Z" id="a"/></defs><path d="M6.417 12.833A6.398 6.398 0 0 1 0 6.417 6.398 6.398 0 0 1 6.417 0a6.398 6.398 0 0 1 6.416 6.417 6.398 6.398 0 0 1-6.416 6.416Zm0-11.666a5.228 5.228 0 0 0-5.25 5.25 5.228 5.228 0 0 0 5.25 5.25 5.228 5.228 0 0 0 5.25-5.25 5.228 5.228 0 0 0-5.25-5.25ZM7 6.417V4.083c0-.35-.233-.583-.583-.583s-.584.233-.584.583v2.334c0 .35.234.583.584.583S7 6.767 7 6.417Zm-.175 2.741c.058-.058.117-.116.117-.175 0-.058.058-.175.058-.233 0-.058 0-.175-.058-.233-.059-.059-.059-.117-.117-.175 0 0-.058-.059-.117-.059-.058 0-.058-.058-.116-.058-.234-.117-.467-.058-.642.117-.058.058-.117.116-.117.175 0 .058-.058.116-.058.233a.53.53 0 0 0 .175.408.53.53 0 0 0 .408.175c.234 0 .35-.058.467-.175Z"/><g clip-path="url(#b)" transform="translate(-.583 -.583)"><path d="M0 0h14v14H0V0Z" fill="#FF9A3C" fill-rule="evenodd"/></g></svg>